# xmcd
#
# Track frame offsets:
#	150
#	11201
#	20634
#	29910
#	40895
#	51907
#	63207
#	73872
#	84222
#	97013
#	107766
#	121539
#	135057
#	146539
#	163052
#	177530
#	191203
#	203300
#	215791
#	232085
#
# Disc length: 3245 seconds
#
# Revision: 2
# Processed by: cddbd v1.5.2PL0 Copyright (c) Steve Scherf et al.
# Submitted via: EasyCDDAExtractor 10.0.2.1
#
DISCID=220cab14
DTITLE=Waylon Jennings - The Essential Waylon Jennings - CD1
DYEAR=2007
DGENRE=Country
TTITLE0=Big Mamou
TTITLE1=That's The Chance I'll Have To Take
TTITLE2=Stop The World (And Let Me Off)
TTITLE3=Anita, You're Dreaming
TTITLE4=(That's What You Get) For Lovin' Me
TTITLE5=The Chokin' Kind
TTITLE6=Only Daddy That'll Walk The Line
TTITLE7=Just To Satisfy You
TTITLE8=Cerdartown, Georgia
TTITLE9=The Talker
TTITLE10=Lovin' Her Was Easier (Than Anything I'll Ever Do Again)
TTITLE11=Sweet Dream Woman
TTITLE12=Ladies Love Outlaws
TTITLE13=Lonesome Orn'ry And Mean
TTITLE14=Freedom To Stay
TTITLE15=Pretend I Never Happened
TTITLE16=You Can Have Her
TTITLE17=We Had It All
TTITLE18=Honky Tonk Blues
TTITLE19=You Ask Me To
EXTD=
EXTT0=
EXTT1=
EXTT2=
EXTT3=
EXTT4=
EXTT5=
EXTT6=
EXTT7=
EXTT8=
EXTT9=
EXTT10=
EXTT11=
EXTT12=
EXTT13=
EXTT14=
EXTT15=
EXTT16=
EXTT17=
EXTT18=
EXTT19=
PLAYORDER=
